<svg viewBox="0 0 350.00000000000006 219.59470720112984" preserveAspectRatio="xMidYMid meet" class="css-g5ufxp" id="ggdghhhf"><defs id="SvgjsDefs1011"></defs><g id="SvgjsG1012" featurekey="symbolFeature-0" transform="matrix(1.75,0,0,1.75,87.5,-17.5)" fill="#fff"><path xmlns="http://www.w3.org/2000/svg" d="M83.999,33.667c2.758,0,5.001,2.244,5.001,5.001c0,2.756-2.243,4.999-5.001,4.999c-2.757,0-4.999-2.243-4.999-4.999  C79,35.91,81.242,33.667,83.999,33.667 M83.999,32.667c-3.308,0-5.999,2.691-5.999,6.001c0,3.308,2.691,5.999,5.999,5.999  c3.309,0,6.001-2.691,6.001-5.999C90,35.358,87.308,32.667,83.999,32.667L83.999,32.667z"></path><path xmlns="http://www.w3.org/2000/svg" d="M83.999,11C86.757,11,89,13.244,89,16.001C89,18.757,86.757,21,83.999,21C81.242,21,79,18.757,79,16.001  C79,13.244,81.242,11,83.999,11 M83.999,10C80.691,10,78,12.691,78,16.001C78,19.309,80.691,22,83.999,22  C87.308,22,90,19.309,90,16.001C90,12.691,87.308,10,83.999,10L83.999,10z"></path><path xmlns="http://www.w3.org/2000/svg" d="M61.332,56.333c2.758,0,5.001,2.243,5.001,5.001c0,2.757-2.243,4.999-5.001,4.999c-2.757,0-4.999-2.242-4.999-4.999  C56.333,58.576,58.575,56.333,61.332,56.333 M61.332,55.333c-3.308,0-5.999,2.692-5.999,6.001c0,3.308,2.691,5.999,5.999,5.999  c3.309,0,6.001-2.691,6.001-5.999C67.333,58.025,64.641,55.333,61.332,55.333L61.332,55.333z"></path><path xmlns="http://www.w3.org/2000/svg" d="M61.332,79c2.758,0,5.001,2.243,5.001,5.001c0,2.757-2.243,4.999-5.001,4.999c-2.757,0-4.999-2.242-4.999-4.999  C56.333,81.243,58.575,79,61.332,79 M61.332,78c-3.308,0-5.999,2.691-5.999,6.001c0,3.308,2.691,5.999,5.999,5.999  c3.309,0,6.001-2.691,6.001-5.999C67.333,80.691,64.641,78,61.332,78L61.332,78z"></path><path xmlns="http://www.w3.org/2000/svg" d="M61.332,11c2.758,0,5.001,2.244,5.001,5.001c0,2.756-2.243,4.999-5.001,4.999c-2.757,0-4.999-2.243-4.999-4.999  C56.333,13.244,58.575,11,61.332,11 M61.332,10c-3.308,0-5.999,2.691-5.999,6.001c0,3.308,2.691,5.999,5.999,5.999  c3.309,0,6.001-2.691,6.001-5.999C67.333,12.691,64.641,10,61.332,10L61.332,10z"></path><path xmlns="http://www.w3.org/2000/svg" d="M38.666,79c2.757,0,5.001,2.243,5.001,5.001c0,2.757-2.244,4.999-5.001,4.999c-2.756,0-4.999-2.242-4.999-4.999  C33.667,81.243,35.909,79,38.666,79 M38.666,78c-3.308,0-5.999,2.691-5.999,6.001c0,3.308,2.691,5.999,5.999,5.999  c3.309,0,6.001-2.691,6.001-5.999C44.667,80.691,41.974,78,38.666,78L38.666,78z"></path><path xmlns="http://www.w3.org/2000/svg" d="M38.666,33.667c2.757,0,5.001,2.244,5.001,5.001c0,2.756-2.244,4.999-5.001,4.999c-2.756,0-4.999-2.243-4.999-4.999  C33.667,35.91,35.909,33.667,38.666,33.667 M38.666,32.667c-3.308,0-5.999,2.691-5.999,6.001c0,3.308,2.691,5.999,5.999,5.999  c3.309,0,6.001-2.691,6.001-5.999C44.667,35.358,41.974,32.667,38.666,32.667L38.666,32.667z"></path><path xmlns="http://www.w3.org/2000/svg" d="M38.666,11c2.757,0,5.001,2.244,5.001,5.001c0,2.756-2.244,4.999-5.001,4.999c-2.756,0-4.999-2.243-4.999-4.999  C33.667,13.244,35.909,11,38.666,11 M38.666,10c-3.308,0-5.999,2.691-5.999,6.001c0,3.308,2.691,5.999,5.999,5.999  c3.309,0,6.001-2.691,6.001-5.999C44.667,12.691,41.974,10,38.666,10L38.666,10z"></path><path xmlns="http://www.w3.org/2000/svg" d="M15.999,56.333c2.757,0,5.001,2.243,5.001,5.001c0,2.757-2.244,4.999-5.001,4.999c-2.756,0-4.999-2.242-4.999-4.999  C11,58.576,13.243,56.333,15.999,56.333 M15.999,55.333c-3.308,0-5.999,2.692-5.999,6.001c0,3.308,2.691,5.999,5.999,5.999  c3.309,0,6.001-2.691,6.001-5.999C22,58.025,19.308,55.333,15.999,55.333L15.999,55.333z"></path><path xmlns="http://www.w3.org/2000/svg" d="M15.999,79C18.756,79,21,81.243,21,84.001C21,86.758,18.756,89,15.999,89C13.243,89,11,86.758,11,84.001  C11,81.243,13.243,79,15.999,79 M15.999,78C12.691,78,10,80.691,10,84.001C10,87.309,12.691,90,15.999,90  C19.308,90,22,87.309,22,84.001C22,80.691,19.308,78,15.999,78L15.999,78z"></path><path xmlns="http://www.w3.org/2000/svg" d="M84.5,78.025V67.308c3.074-0.256,5.5-2.835,5.5-5.974c0-3.309-2.692-6.001-6.001-6.001c-1.474,0-2.823,0.537-3.869,1.423  L65.91,42.537c0.886-1.045,1.423-2.395,1.423-3.869c0-3.31-2.692-6.001-6.001-6.001c-3.308,0-5.999,2.691-5.999,6.001  c0,1.474,0.537,2.824,1.423,3.87l-14.22,14.219c-1.046-0.886-2.396-1.423-3.871-1.423c-1.474,0-2.824,0.537-3.87,1.423  L20.577,42.537C21.463,41.492,22,40.142,22,38.667c0-3.141-2.426-5.72-5.501-5.976V21.975C19.574,21.719,22,19.14,22,16.001  C22,12.691,19.308,10,15.999,10C12.691,10,10,12.691,10,16.001c0,3.139,2.425,5.718,5.499,5.974v10.717  C12.425,32.947,10,35.527,10,38.667c0,3.308,2.691,5.999,5.999,5.999c1.475,0,2.825-0.537,3.871-1.422l14.22,14.219  c-0.886,1.046-1.423,2.396-1.423,3.871c0,3.308,2.691,5.999,5.999,5.999c3.309,0,6.001-2.691,6.001-5.999  c0-1.475-0.537-2.825-1.423-3.871l14.22-14.219c1.045,0.885,2.395,1.422,3.869,1.422s2.825-0.537,3.871-1.423l14.22,14.219  C78.537,58.509,78,59.859,78,61.334c0,3.139,2.426,5.719,5.5,5.974v10.718C80.426,78.28,78,80.86,78,84.001  C78,87.309,80.691,90,83.999,90C87.308,90,90,87.309,90,84.001C90,80.86,87.574,78.281,84.5,78.025z"></path></g><g id="SvgjsG1013" featurekey="nameFeature-0" transform="matrix(1.4986384745060413,0,0,1.4986384745060413,-1.9605286807609177,145.01436416256348)" fill="#fff"><path d="M21.797 29.668 l-0.058594 1.3477 l-14.883 0 c0.23438 3.3398 2.4609 4.9414 5.1367 4.9414 c2.0117 0 3.5742 -0.9375 4.3359 -2.7148 l5.1563 0.76172 c-1.3281 4.0625 -4.9414 6.3867 -9.4531 6.3867 c-6.4844 0 -10.723 -3.8281 -10.723 -10.43 s4.3555 -10.469 10.547 -10.469 c5.6836 0 9.9219 3.1445 9.9414 10.176 z M11.895 23.477 c-2.5586 0 -4.3359 1.1914 -4.8828 3.8672 l9.2188 0 c-0.29297 -2.5586 -2.0313 -3.8672 -4.3359 -3.8672 z M34.5169765625 40 c-3.9063 0 -6.1328 -2.2656 -6.1328 -6.2695 l0 -9.4922 l-3.9453 0 l0 -4.3164 l1.2695 0 c2.1289 0 3.3008 -0.82031 3.3008 -3.8281 l0 -2.6563 l5.0781 0 l0 6.4844 l4.1406 0 l0 4.3164 l-4.1406 0 l0 8.8867 c0 1.7969 0.87891 2.5977 2.3242 2.5977 l1.8164 0 l0 4.2773 l-3.7109 0 z M55.693765625 19.531 c4.4922 0 7.1875 2.5 7.1875 7.5195 l0 12.949 l-5.6445 0 l0 -12.031 c0 -2.9492 -1.6406 -3.9258 -3.6523 -3.9258 c-2.0898 0 -4.375 1.0352 -4.4141 4.8828 l0 11.074 l-5.625 0 l0 -30 l5.625 0 l0 12.324 c1.4258 -1.7383 3.6719 -2.793 6.5234 -2.793 z M88.1397734375 29.668 l-0.058594 1.3477 l-14.883 0 c0.23438 3.3398 2.4609 4.9414 5.1367 4.9414 c2.0117 0 3.5742 -0.9375 4.3359 -2.7148 l5.1563 0.76172 c-1.3281 4.0625 -4.9414 6.3867 -9.4531 6.3867 c-6.4844 0 -10.723 -3.8281 -10.723 -10.43 s4.3555 -10.469 10.547 -10.469 c5.6836 0 9.9219 3.1445 9.9414 10.176 z M78.2377734375 23.477 c-2.5586 0 -4.3359 1.1914 -4.8828 3.8672 l9.2188 0 c-0.29297 -2.5586 -2.0313 -3.8672 -4.3359 -3.8672 z M90.625 40 l8.2422 -10.059 l-8.2422 -10.02 l7.0313 0 l4.6094 6.3281 l4.6484 -6.3281 l6.9727 0 l-8.2617 10.039 l8.2617 10.039 l-6.9727 0 l-4.6094 -6.2891 l-4.6289 6.2891 l-7.0508 0 z M129.7124140625 19.531 c5.293 0 9.668 3.8867 9.668 10.469 s-4.375 10.469 -9.668 10.469 c-2.6172 0 -4.9609 -1.0156 -6.1523 -2.8516 l0 12.148 l-5.625 0 l0 -29.844 l5.332 0 l0.15625 2.6953 c1.1133 -1.9922 3.5547 -3.0859 6.2891 -3.0859 z M128.4424140625 35.8008 c2.9492 0 5.3125 -2.1484 5.3125 -5.8008 s-2.3633 -5.8008 -5.3125 -5.8008 c-3.0078 0 -5.3516 2.2852 -5.3516 5.8008 s2.3438 5.8008 5.3516 5.8008 z M144.580121875 40 l0 -30 l5.6836 0 l0 30 l-5.6836 0 z M166.4017421875 40.39063 c-6.3867 0 -10.996 -3.8867 -10.996 -10.449 c0 -6.5234 4.5703 -10.41 10.996 -10.41 c6.4648 0 11.016 3.8867 11.016 10.41 c0 6.5625 -4.5703 10.449 -11.016 10.449 z M166.3427421875 35.918 c3.2617 0 5.4883 -2.3828 5.4883 -5.9766 s-2.2266 -5.9766 -5.4883 -5.9766 c-3.1445 0 -5.3516 2.3828 -5.3516 5.9766 s2.207 5.9766 5.3516 5.9766 z M187.9492375 23.105 c1.0156 -1.7773 3.6523 -3.418 6.5625 -3.418 l0 5.0195 c-4.2578 0 -6.2891 1.25 -6.2891 5.5078 l0 9.7852 l-5.6641 0 l0 -20.078 l5.3906 0 l0 3.1836 z M217.6612578125 29.668 l-0.058594 1.3477 l-14.883 0 c0.23438 3.3398 2.4609 4.9414 5.1367 4.9414 c2.0117 0 3.5742 -0.9375 4.3359 -2.7148 l5.1563 0.76172 c-1.3281 4.0625 -4.9414 6.3867 -9.4531 6.3867 c-6.4844 0 -10.723 -3.8281 -10.723 -10.43 s4.3555 -10.469 10.547 -10.469 c5.6836 0 9.9219 3.1445 9.9414 10.176 z M207.7592578125 23.477 c-2.5586 0 -4.3359 1.1914 -4.8828 3.8672 l9.2188 0 c-0.29297 -2.5586 -2.0313 -3.8672 -4.3359 -3.8672 z M228.291034375 23.105 c1.0156 -1.7773 3.6523 -3.418 6.5625 -3.418 l0 5.0195 c-4.2578 0 -6.2891 1.25 -6.2891 5.5078 l0 9.7852 l-5.6641 0 l0 -20.078 l5.3906 0 l0 3.1836 z"></path></g></svg>